<svg width="81" height="81" viewBox="0 0 81 81" fill="none" xmlns="http://www.w3.org/2000/svg">
<path d="M70.875 40.5C69.9799 40.5 69.1214 40.8556 68.4885 41.4886C67.8556 42.1215 67.5 42.9799 67.5 43.875V64.125C67.5 65.0201 67.1444 65.8786 66.5115 66.5115C65.8786 67.1445 65.0201 67.5 64.125 67.5H16.875C15.9799 67.5 15.1215 67.1445 14.4885 66.5115C13.8556 65.8786 13.5 65.0201 13.5 64.125V16.875C13.5 15.9799 13.8556 15.1215 14.4885 14.4886C15.1215 13.8556 15.9799 13.5 16.875 13.5H37.125C38.0201 13.5 38.8785 13.1445 39.5115 12.5115C40.1444 11.8786 40.5 11.0201 40.5 10.125C40.5 9.22993 40.1444 8.37149 39.5115 7.73855C38.8785 7.10562 38.0201 6.75004 37.125 6.75004H16.875C14.1897 6.75004 11.6143 7.81678 9.71554 9.71558C7.81674 11.6144 6.75 14.1897 6.75 16.875V64.125C6.75 66.8104 7.81674 69.3857 9.71554 71.2845C11.6143 73.1833 14.1897 74.25 16.875 74.25H64.125C66.8103 74.25 69.3857 73.1833 71.2845 71.2845C73.1833 69.3857 74.25 66.8104 74.25 64.125V43.875C74.25 42.9799 73.8944 42.1215 73.2615 41.4886C72.6286 40.8556 71.7701 40.5 70.875 40.5ZM20.25 43.065V57.375C20.25 58.2701 20.6056 59.1286 21.2385 59.7615C21.8715 60.3945 22.7299 60.75 23.625 60.75H37.935C38.3792 60.7526 38.8195 60.6675 39.2307 60.4995C39.6419 60.3316 40.0159 60.0841 40.3312 59.7713L63.6863 36.3825L73.2712 27C73.5876 26.6863 73.8387 26.313 74.01 25.9017C74.1814 25.4905 74.2696 25.0493 74.2696 24.6038C74.2696 24.1582 74.1814 23.7171 74.01 23.3058C73.8387 22.8946 73.5876 22.5213 73.2712 22.2075L58.9612 7.72879C58.6475 7.41245 58.2742 7.16137 57.8629 6.99003C57.4517 6.81869 57.0105 6.73047 56.565 6.73047C56.1195 6.73047 55.6783 6.81869 55.2671 6.99003C54.8558 7.16137 54.4825 7.41245 54.1687 7.72879L44.6512 17.28L21.2288 40.6688C20.9159 40.9841 20.6685 41.3582 20.5005 41.7694C20.3326 42.1806 20.2474 42.6209 20.25 43.065ZM56.565 14.8838L66.1162 24.435L61.3237 29.2275L51.7725 19.6763L56.565 14.8838ZM27 44.4488L47.0138 24.435L56.565 33.9863L36.5513 54H27V44.4488Z" fill="#346644"/>
</svg>
